<?xml version="1.0" encoding="UTF-8" standalone="no"?>
<svg
   xmlns:dc="http://purl.org/dc/elements/1.1/"
   xmlns:cc="http://creativecommons.org/ns#"
   xmlns:rdf="http://www.w3.org/1999/02/22-rdf-syntax-ns#"
   xmlns:svg="http://www.w3.org/2000/svg"
   xmlns="http://www.w3.org/2000/svg"
   xmlns:sodipodi="http://sodipodi.sourceforge.net/DTD/sodipodi-0.dtd"
   xmlns:inkscape="http://www.inkscape.org/namespaces/inkscape"
   inkscape:export-ydpi="96"
   inkscape:export-xdpi="96"
   inkscape:export-filename="/Users/fran/UNIRMasterBDataThesis/jupyter_notebooks/DMS_imgs/Flow-Chart-Depicting-Subject-Participation-and-the-Number-of-Records.png"
   width="232.17413mm"
   height="99.845123mm"
   viewBox="0 0 232.17413 99.845123"
   version="1.1"
   id="svg1277"
   inkscape:version="1.0 (4035a4f, 2020-05-01)"
   sodipodi:docname="Flow-Chart-Depicting-Subject-Participation-and-the-Number-of-Records.svg">
  <defs
     id="defs1271">
    <clipPath
       id="clipPath18"
       clipPathUnits="userSpaceOnUse">
      <path
         style="clip-rule:evenodd"
         id="path16"
         d="M 116.66666,116.66666 H 3383.3332 V 1720.366 H 116.66666 Z" />
    </clipPath>
    <clipPath
       id="clipPath30"
       clipPathUnits="userSpaceOnUse">
      <path
         style="clip-rule:evenodd"
         id="path28"
         d="M 141.4236,201.94055 H 3354.324 V 1654.3475 H 141.4236 Z" />
    </clipPath>
    <clipPath
       id="clipPath42"
       clipPathUnits="userSpaceOnUse">
      <path
         style="clip-rule:evenodd"
         id="path40"
         d="M 141.4236,201.94055 H 3354.324 V 1654.3475 H 141.4236 Z" />
    </clipPath>
    <clipPath
       id="clipPath50"
       clipPathUnits="userSpaceOnUse">
      <path
         id="path48"
         d="M 0,0 H 771 V 238 H 0 Z" />
    </clipPath>
    <clipPath
       id="clipPath84"
       clipPathUnits="userSpaceOnUse">
      <path
         id="path82"
         d="M 0,0 H 551 V 169 H 0 Z" />
    </clipPath>
    <clipPath
       id="clipPath114"
       clipPathUnits="userSpaceOnUse">
      <path
         id="path112"
         d="M 0,0 H 551 V 169 H 0 Z" />
    </clipPath>
    <clipPath
       id="clipPath144"
       clipPathUnits="userSpaceOnUse">
      <path
         id="path142"
         d="M 0,0 H 551 V 166 H 0 Z" />
    </clipPath>
    <clipPath
       id="clipPath170"
       clipPathUnits="userSpaceOnUse">
      <path
         id="path168"
         d="M 0,0 H 551 V 166 H 0 Z" />
    </clipPath>
    <clipPath
       id="clipPath220"
       clipPathUnits="userSpaceOnUse">
      <path
         id="path218"
         d="M 0,0 H 552 V 166 H 0 Z" />
    </clipPath>
    <clipPath
       id="clipPath246"
       clipPathUnits="userSpaceOnUse">
      <path
         id="path244"
         d="M 0,0 H 551 V 166 H 0 Z" />
    </clipPath>
    <clipPath
       id="clipPath272"
       clipPathUnits="userSpaceOnUse">
      <path
         id="path270"
         d="M 0,0 H 435 V 193 H 0 Z" />
    </clipPath>
    <clipPath
       id="clipPath302"
       clipPathUnits="userSpaceOnUse">
      <path
         id="path300"
         d="M 0,0 H 447 V 193 H 0 Z" />
    </clipPath>
    <clipPath
       id="clipPath332"
       clipPathUnits="userSpaceOnUse">
      <path
         id="path330"
         d="M 0,0 H 441 V 193 H 0 Z" />
    </clipPath>
    <clipPath
       id="clipPath362"
       clipPathUnits="userSpaceOnUse">
      <path
         id="path360"
         d="M 0,0 H 441 V 193 H 0 Z" />
    </clipPath>
  </defs>
  <sodipodi:namedview
     fit-margin-bottom="0"
     fit-margin-right="0"
     fit-margin-left="0"
     fit-margin-top="0"
     id="base"
     pagecolor="#ffffff"
     bordercolor="#666666"
     borderopacity="1"
     inkscape:pageopacity="0.0"
     inkscape:pageshadow="2"
     inkscape:zoom="0.45873982"
     inkscape:cx="222.26702"
     inkscape:cy="402.13608"
     inkscape:document-units="mm"
     inkscape:current-layer="layer1"
     inkscape:document-rotation="0"
     showgrid="false"
     inkscape:window-width="1251"
     inkscape:window-height="801"
     inkscape:window-x="0"
     inkscape:window-y="205"
     inkscape:window-maximized="0"
     showborder="true" />
  <metadata
     id="metadata1274">
    <rdf:RDF>
      <cc:Work
         rdf:about="">
        <dc:format>image/svg+xml</dc:format>
        <dc:type
           rdf:resource="http://purl.org/dc/dcmitype/StillImage" />
        <dc:title></dc:title>
      </cc:Work>
    </rdf:RDF>
  </metadata>
  <g
     transform="translate(41.731779,-33.377889)"
     inkscape:label="Capa 1"
     inkscape:groupmode="layer"
     id="layer1">
    <g
       transform="matrix(0.07384366,0,0,0.07216133,-53.901595,17.118347)"
       id="g10">
      <g
         id="g12">
        <g
           clip-path="url(#clipPath18)"
           id="g14">
          <g
             transform="matrix(2.7507708,0,0,2.7507708,116.66666,116.66666)"
             id="g20" />
        </g>
      </g>
      <g
         id="g24">
        <g
           clip-path="url(#clipPath30)"
           id="g26">
          <g
             transform="matrix(2.7507708,0,0,2.7507708,141.4236,201.94055)"
             id="g32" />
        </g>
      </g>
      <g
         id="g36">
        <g
           clip-path="url(#clipPath42)"
           id="g38">
          <g
             transform="translate(1581,233)"
             id="g44">
            <g
               id="g46" />
            <g
               id="g58">
              <g
                 style="opacity:0.2471"
                 id="g56"
                 clip-path="url(#clipPath50)">
                <g
                   id="g54"
                   transform="matrix(2.7507708,0,0,2.7507708,-1512.4718,-879.67224)">
                  <path
                     id="path52"
                     style="fill:#000000;fill-opacity:1;fill-rule:nonzero;stroke:none"
                     d="m 562.82001,320 h 254.35998 c 0.84174,0 1.67536,0.0821 2.50098,0.24634 0.82556,0.16421 1.6272,0.40738 2.40491,0.72952 0.77765,0.32214 1.51648,0.71704 2.21649,1.18469 0.69989,0.46765 1.34741,0.99909 1.94269,1.59433 0.59521,0.59519 1.12664,1.24277 1.5943,1.94269 0.46771,0.69992 0.86261,1.43872 1.18475,2.21643 0.32214,0.77768 0.56531,1.57935 0.72955,2.40494 0.16425,0.82559 0.24634,1.6593 0.24634,2.50107 v 59.85998 c 0,0.84177 -0.0821,1.67545 -0.24634,2.50104 -0.16424,0.82559 -0.40741,1.62723 -0.72955,2.40491 -0.32214,0.77771 -0.71704,1.51651 -1.18475,2.21643 -0.46766,0.69992 -0.99909,1.34747 -1.5943,1.94272 -0.59528,0.59521 -1.2428,1.12664 -1.94269,1.5943 -0.70001,0.46765 -1.43884,0.86254 -2.21649,1.18469 -0.77771,0.32214 -1.57935,0.56534 -2.40497,0.72955 -0.82556,0.16422 -1.65918,0.24634 -2.50092,0.24637 H 562.82001 c -0.8418,-3e-5 -1.67548,-0.0822 -2.5011,-0.24637 -0.82562,-0.16421 -1.62726,-0.40738 -2.40491,-0.72952 -0.77771,-0.32218 -1.51654,-0.71707 -2.21649,-1.18469 -0.69989,-0.46769 -1.34747,-0.99912 -1.94263,-1.59433 -0.59527,-0.59525 -1.12671,-1.2428 -1.59436,-1.94272 -0.46771,-0.69992 -0.86267,-1.43875 -1.18475,-2.21646 -0.32208,-0.77768 -0.56525,-1.57932 -0.72949,-2.40488 C 550.08209,394.35544 550,393.52176 550,392.67999 v -59.85998 c 0,-0.84177 0.0821,-1.67548 0.24628,-2.50107 0.16424,-0.82559 0.40741,-1.62726 0.72949,-2.40494 0.32208,-0.77771 0.71704,-1.51651 1.18475,-2.21643 0.46765,-0.69992 0.99909,-1.3475 1.59436,-1.94269 0.59516,-0.59524 1.24274,-1.12668 1.94263,-1.59433 0.69995,-0.46765 1.43878,-0.86255 2.21649,-1.18469 0.77765,-0.32214 1.57929,-0.56531 2.40491,-0.72952 0.82562,-0.16422 1.6593,-0.24634 2.5011,-0.24634 z" />
                </g>
              </g>
            </g>
          </g>
          <g
             transform="matrix(2.7507708,0,0,2.7507708,63.026634,-654.92456)"
             id="g60">
            <path
               id="path62"
               style="fill:#10739e;fill-opacity:1;fill-rule:nonzero;stroke:none"
               d="m 562.82001,320 h 254.35998 c 0.84174,0 1.67536,0.0821 2.50098,0.24634 0.82556,0.16421 1.6272,0.40738 2.40491,0.72952 0.77765,0.32214 1.51648,0.71704 2.21649,1.18469 0.69989,0.46765 1.34741,0.99909 1.94269,1.59433 0.59521,0.59519 1.12664,1.24277 1.5943,1.94269 0.46771,0.69992 0.86261,1.43872 1.18475,2.21643 0.32214,0.77768 0.56531,1.57935 0.72955,2.40494 0.16425,0.82559 0.24634,1.6593 0.24634,2.50107 v 59.85998 c 0,0.84177 -0.0821,1.67545 -0.24634,2.50104 -0.16424,0.82559 -0.40741,1.62723 -0.72955,2.40491 -0.32214,0.77771 -0.71704,1.51651 -1.18475,2.21643 -0.46766,0.69992 -0.99909,1.34747 -1.5943,1.94272 -0.59528,0.59521 -1.2428,1.12664 -1.94269,1.5943 -0.70001,0.46765 -1.43884,0.86254 -2.21649,1.18469 -0.77771,0.32214 -1.57935,0.56534 -2.40497,0.72955 -0.82556,0.16422 -1.65918,0.24634 -2.50092,0.24637 H 562.82001 c -0.8418,-3e-5 -1.67548,-0.0822 -2.5011,-0.24637 -0.82562,-0.16421 -1.62726,-0.40738 -2.40491,-0.72952 -0.77771,-0.32218 -1.51654,-0.71707 -2.21649,-1.18469 -0.69989,-0.46769 -1.34747,-0.99912 -1.94263,-1.59433 -0.59527,-0.59525 -1.12671,-1.2428 -1.59436,-1.94272 -0.46771,-0.69992 -0.86267,-1.43875 -1.18475,-2.21646 -0.32208,-0.77768 -0.56525,-1.57932 -0.72949,-2.40488 C 550.08209,394.35544 550,393.52176 550,392.67999 v -59.85998 c 0,-0.84177 0.0821,-1.67548 0.24628,-2.50107 0.16424,-0.82559 0.40741,-1.62726 0.72949,-2.40494 0.32208,-0.77771 0.71704,-1.51651 1.18475,-2.21643 0.46765,-0.69992 0.99909,-1.3475 1.59436,-1.94269 0.59516,-0.59524 1.24274,-1.12668 1.94263,-1.59433 0.69995,-0.46765 1.43878,-0.86255 2.21649,-1.18469 0.77765,-0.32214 1.57929,-0.56531 2.40491,-0.72952 0.82562,-0.16422 1.6593,-0.24634 2.5011,-0.24634 z" />
          </g>
          <g
             transform="matrix(2.7507708,0,0,2.7507708,61.651245,-656.29993)"
             id="g64">
            <text
               id="text68"
               style="font-variant:normal;font-weight:bold;font-size:14px;font-family:Helvetica;-inkscape-font-specification:Helvetica-Bold;writing-mode:lr-tb;fill:#ffffff;fill-opacity:1;fill-rule:nonzero;stroke:none"
               transform="translate(569.40625,353)"><tspan
                 id="tspan66"
                 y="0"
                 x="0 10.110352 14 18.662109 27.213867 31.875977 39.662109 43.551758 47.441406 55.993164 60.655273 64.544922 72.331055 80.117188 87.90332 95.689453 99.579102 108.13086 115.91699 119.80664 123.69629 131.48242 135.37207 140.82031 148.60645 156.39258 164.94434 170.39258 178.94434 186.73047 190.62012 195.28223 200.73047 209.28223 221.73047 225.62012 233.40625">A total of 4579 daily records from 62</tspan></text>
            <text
               id="text72"
               style="font-variant:normal;font-weight:bold;font-size:14px;font-family:Helvetica;-inkscape-font-specification:Helvetica-Bold;writing-mode:lr-tb;fill:#ffffff;fill-opacity:1;fill-rule:nonzero;stroke:none"
               transform="translate(565.89063,369)"><tspan
                 id="tspan70"
                 y="0"
                 x="0 12.448242 16.337891 24.889648 30.337891 38.124023 42.013672 50.56543 58.351562 66.90332 72.351562 80.137695 84.027344 89.475586 97.261719 105.81348 109.70312 117.48926 122.15137 129.9375 135.38574 143.17188 151.72363 155.61328 163.39941 168.06152 171.95117 175.84082 183.62695 191.41309 199.19922 203.08887 210.875 218.66113 231.10938 234.99902 243.55078">migraineurs registered at leas 50% of</tspan></text>
            <text
               id="text76"
               style="font-variant:normal;font-weight:bold;font-size:14px;font-family:Helvetica;-inkscape-font-specification:Helvetica-Bold;writing-mode:lr-tb;fill:#ffffff;fill-opacity:1;fill-rule:nonzero;stroke:none"
               transform="translate(656.15625,385)"><tspan
                 id="tspan74"
                 y="0"
                 x="0 4.6621094 13.213867 21 24.889648 30.337891 34.227539 42.779297 46.668945 54.455078 59.90332">their diary</tspan></text>
          </g>
          <g
             transform="translate(899,604)"
             id="g78">
            <g
               id="g80" />
            <g
               id="g92">
              <g
                 style="opacity:0.2471"
                 id="g90"
                 clip-path="url(#clipPath84)">
                <g
                   id="g88"
                   transform="matrix(2.7507708,0,0,2.7507708,-830.4718,-1250.6722)">
                  <path
                     id="path86"
                     style="fill:#000000;fill-opacity:1;fill-rule:nonzero;stroke:none"
                     d="m 311,455.5 h 182 c 0.59094,0 1.17621,0.0577 1.7558,0.17291 0.57956,0.11527 1.14233,0.28598 1.68829,0.51212 0.54596,0.22613 1.06461,0.50336 1.55597,0.83169 0.49136,0.32834 0.94598,0.70142 1.36386,1.1193 0.41788,0.41784 0.79096,0.87243 1.11923,1.3638 0.32834,0.49136 0.60556,1.01001 0.8317,1.556 0.22614,0.54596 0.39685,1.10873 0.51218,1.68832 0.11526,0.57962 0.17294,1.16489 0.17297,1.75586 v 42 c -3e-5,0.59094 -0.0577,1.17621 -0.173,1.7558 -0.11533,0.57956 -0.28605,1.14233 -0.51218,1.68832 -0.22614,0.54593 -0.50336,1.06461 -0.83167,1.55597 -0.32827,0.49137 -0.70135,0.94595 -1.11923,1.36386 -0.41788,0.41785 -0.8725,0.79096 -1.36386,1.11927 -0.49136,0.3283 -1.01001,0.60553 -1.55597,0.83166 -0.54596,0.22614 -1.10873,0.39685 -1.68829,0.51215 -0.57959,0.11529 -1.16486,0.17291 -1.7558,0.17297 H 311 c -0.59094,-6e-5 -1.17621,-0.0577 -1.75583,-0.17297 -0.57962,-0.1153 -1.14239,-0.28601 -1.68835,-0.51215 -0.54596,-0.22613 -1.06461,-0.50336 -1.55597,-0.83166 -0.49137,-0.32831 -0.94596,-0.70142 -1.36383,-1.11927 -0.41788,-0.41791 -0.79096,-0.87249 -1.11927,-1.36386 -0.3283,-0.49136 -0.60553,-1.01004 -0.83169,-1.556 -0.22614,-0.54596 -0.39685,-1.10873 -0.51215,-1.68829 C 302.05765,507.67621 302,507.09094 302,506.5 v -42 c 0,-0.59097 0.0577,-1.17624 0.17291,-1.75586 0.1153,-0.57962 0.28601,-1.14239 0.51215,-1.68835 0.22616,-0.54596 0.50339,-1.06461 0.83169,-1.55597 0.32831,-0.49137 0.70139,-0.94596 1.11927,-1.3638 0.41787,-0.41788 0.87246,-0.79096 1.36383,-1.1193 0.49136,-0.32833 1.01001,-0.60556 1.55597,-0.83169 0.54596,-0.22614 1.10873,-0.39685 1.68835,-0.51212 C 309.82379,455.55765 310.40906,455.5 311,455.5 Z" />
                </g>
              </g>
            </g>
          </g>
          <g
             transform="matrix(2.7507708,0,0,2.7507708,63.026634,-654.92456)"
             id="g94">
            <path
               id="path96"
               style="fill:#10739e;fill-opacity:1;fill-rule:nonzero;stroke:none"
               d="m 311,455.5 h 182 c 0.59094,0 1.17621,0.0577 1.7558,0.17291 0.57956,0.11527 1.14233,0.28598 1.68829,0.51212 0.54596,0.22613 1.06461,0.50336 1.55597,0.83169 0.49136,0.32834 0.94598,0.70142 1.36386,1.1193 0.41788,0.41784 0.79096,0.87243 1.11923,1.3638 0.32834,0.49136 0.60556,1.01001 0.8317,1.556 0.22614,0.54596 0.39685,1.10873 0.51218,1.68832 0.11526,0.57962 0.17294,1.16489 0.17297,1.75586 v 42 c -3e-5,0.59094 -0.0577,1.17621 -0.173,1.7558 -0.11533,0.57956 -0.28605,1.14233 -0.51218,1.68832 -0.22614,0.54593 -0.50336,1.06461 -0.83167,1.55597 -0.32827,0.49137 -0.70135,0.94595 -1.11923,1.36386 -0.41788,0.41785 -0.8725,0.79096 -1.36386,1.11927 -0.49136,0.3283 -1.01001,0.60553 -1.55597,0.83166 -0.54596,0.22614 -1.10873,0.39685 -1.68829,0.51215 -0.57959,0.11529 -1.16486,0.17291 -1.7558,0.17297 H 311 c -0.59094,-6e-5 -1.17621,-0.0577 -1.75583,-0.17297 -0.57962,-0.1153 -1.14239,-0.28601 -1.68835,-0.51215 -0.54596,-0.22613 -1.06461,-0.50336 -1.55597,-0.83166 -0.49137,-0.32831 -0.94596,-0.70142 -1.36383,-1.11927 -0.41788,-0.41791 -0.79096,-0.87249 -1.11927,-1.36386 -0.3283,-0.49136 -0.60553,-1.01004 -0.83169,-1.556 -0.22614,-0.54596 -0.39685,-1.10873 -0.51215,-1.68829 C 302.05765,507.67621 302,507.09094 302,506.5 v -42 c 0,-0.59097 0.0577,-1.17624 0.17291,-1.75586 0.1153,-0.57962 0.28601,-1.14239 0.51215,-1.68835 0.22616,-0.54596 0.50339,-1.06461 0.83169,-1.55597 0.32831,-0.49137 0.70139,-0.94596 1.11927,-1.3638 0.41787,-0.41788 0.87246,-0.79096 1.36383,-1.1193 0.49136,-0.32833 1.01001,-0.60556 1.55597,-0.83169 0.54596,-0.22614 1.10873,-0.39685 1.68835,-0.51212 C 309.82379,455.55765 310.40906,455.5 311,455.5 Z" />
          </g>
          <g
             transform="matrix(2.7507708,0,0,2.7507708,61.651245,-656.29993)"
             id="g98">
            <text
               id="text102"
               style="font-variant:normal;font-weight:bold;font-size:14px;font-family:Helvetica;-inkscape-font-specification:Helvetica-Bold;writing-mode:lr-tb;fill:#ffffff;fill-opacity:1;fill-rule:nonzero;stroke:none"
               transform="translate(335.09375,484)"><tspan
                 id="tspan100"
                 y="0"
                 x="0 7.7861328 15.572266 23.358398 31.144531 35.03418 40.482422 48.268555 56.054688 64.606445 70.054688 78.606445 86.392578 90.282227 98.833984 107.38574 112.83398 116.72363 125.27539">1099 records during</tspan></text>
            <text
               id="text106"
               style="font-variant:normal;font-weight:bold;font-size:14px;font-family:Helvetica;-inkscape-font-specification:Helvetica-Bold;writing-mode:lr-tb;fill:#ffffff;fill-opacity:1;fill-rule:nonzero;stroke:none"
               transform="translate(355.70313,500)"><tspan
                 id="tspan104"
                 y="0"
                 x="0 8.5517578 16.337891 24.124023 32.675781 40.461914 48.248047 56.799805 64.585938 68.475586 77.027344 84.813477">headache day</tspan></text>
          </g>
          <g
             transform="translate(2467,604)"
             id="g108">
            <g
               id="g110" />
            <g
               id="g122">
              <g
                 style="opacity:0.2471"
                 id="g120"
                 clip-path="url(#clipPath114)">
                <g
                   id="g118"
                   transform="matrix(2.7507708,0,0,2.7507708,-2398.4719,-1250.6722)">
                  <path
                     id="path116"
                     style="fill:#000000;fill-opacity:1;fill-rule:nonzero;stroke:none"
                     d="m 881,455.5 h 182 c 0.5909,0 1.1762,0.0577 1.7557,0.17291 0.5795,0.11527 1.1423,0.28598 1.6883,0.51212 0.5459,0.22613 1.0645,0.50336 1.5559,0.83169 0.4913,0.32834 0.946,0.70142 1.364,1.1193 0.4178,0.41784 0.791,0.87243 1.1193,1.3638 0.3282,0.49136 0.6054,1.01001 0.8316,1.556 0.2262,0.54596 0.397,1.10873 0.5122,1.68832 0.1154,0.57962 0.173,1.16489 0.173,1.75586 v 42 c 0,0.59094 -0.058,1.17621 -0.173,1.7558 -0.1152,0.57956 -0.286,1.14233 -0.5122,1.68832 -0.2262,0.54593 -0.5034,1.06461 -0.8316,1.55597 -0.3283,0.49137 -0.7015,0.94595 -1.1193,1.36386 -0.418,0.41785 -0.8727,0.79096 -1.364,1.11927 -0.4914,0.3283 -1.01,0.60553 -1.5559,0.83166 -0.546,0.22614 -1.1088,0.39685 -1.6883,0.51215 -0.5795,0.11529 -1.1648,0.17291 -1.7557,0.17297 H 881 c -0.591,-6e-5 -1.17627,-0.0577 -1.75592,-0.17297 -0.57965,-0.1153 -1.1424,-0.28601 -1.68835,-0.51215 -0.54596,-0.22613 -1.06458,-0.50336 -1.55597,-0.83166 -0.49128,-0.32831 -0.94587,-0.70142 -1.36371,-1.11927 -0.41791,-0.41791 -0.79102,-0.87249 -1.11933,-1.36386 -0.3283,-0.49136 -0.60553,-1.01004 -0.83166,-1.556 -0.22614,-0.54596 -0.39679,-1.10873 -0.51209,-1.68829 C 872.05768,507.67621 872.00006,507.09094 872,506.5 v -42 c 6e-5,-0.59097 0.0577,-1.17624 0.17297,-1.75586 0.1153,-0.57962 0.28595,-1.14239 0.51209,-1.68835 0.22613,-0.54596 0.50336,-1.06461 0.83166,-1.55597 0.32831,-0.49137 0.70142,-0.94596 1.11933,-1.3638 0.41784,-0.41788 0.87243,-0.79096 1.36371,-1.1193 0.49139,-0.32833 1.01007,-0.60556 1.55603,-0.83169 0.54596,-0.22614 1.1087,-0.39685 1.68829,-0.51212 C 879.82373,455.55765 880.409,455.5 881,455.5 Z" />
                </g>
              </g>
            </g>
          </g>
          <g
             transform="matrix(2.7507708,0,0,2.7507708,63.026634,-654.92456)"
             id="g124">
            <path
               id="path126"
               style="fill:#10739e;fill-opacity:1;fill-rule:nonzero;stroke:none"
               d="m 881,455.5 h 182 c 0.5909,0 1.1762,0.0577 1.7557,0.17291 0.5795,0.11527 1.1423,0.28598 1.6883,0.51212 0.5459,0.22613 1.0645,0.50336 1.5559,0.83169 0.4913,0.32834 0.946,0.70142 1.364,1.1193 0.4178,0.41784 0.791,0.87243 1.1193,1.3638 0.3282,0.49136 0.6054,1.01001 0.8316,1.556 0.2262,0.54596 0.397,1.10873 0.5122,1.68832 0.1154,0.57962 0.173,1.16489 0.173,1.75586 v 42 c 0,0.59094 -0.058,1.17621 -0.173,1.7558 -0.1152,0.57956 -0.286,1.14233 -0.5122,1.68832 -0.2262,0.54593 -0.5034,1.06461 -0.8316,1.55597 -0.3283,0.49137 -0.7015,0.94595 -1.1193,1.36386 -0.418,0.41785 -0.8727,0.79096 -1.364,1.11927 -0.4914,0.3283 -1.01,0.60553 -1.5559,0.83166 -0.546,0.22614 -1.1088,0.39685 -1.6883,0.51215 -0.5795,0.11529 -1.1648,0.17291 -1.7557,0.17297 H 881 c -0.591,-6e-5 -1.17627,-0.0577 -1.75592,-0.17297 -0.57965,-0.1153 -1.1424,-0.28601 -1.68835,-0.51215 -0.54596,-0.22613 -1.06458,-0.50336 -1.55597,-0.83166 -0.49128,-0.32831 -0.94587,-0.70142 -1.36371,-1.11927 -0.41791,-0.41791 -0.79102,-0.87249 -1.11933,-1.36386 -0.3283,-0.49136 -0.60553,-1.01004 -0.83166,-1.556 -0.22614,-0.54596 -0.39679,-1.10873 -0.51209,-1.68829 C 872.05768,507.67621 872.00006,507.09094 872,506.5 v -42 c 6e-5,-0.59097 0.0577,-1.17624 0.17297,-1.75586 0.1153,-0.57962 0.28595,-1.14239 0.51209,-1.68835 0.22613,-0.54596 0.50336,-1.06461 0.83166,-1.55597 0.32831,-0.49137 0.70142,-0.94596 1.11933,-1.3638 0.41784,-0.41788 0.87243,-0.79096 1.36371,-1.1193 0.49139,-0.32833 1.01007,-0.60556 1.55603,-0.83169 0.54596,-0.22614 1.1087,-0.39685 1.68829,-0.51212 C 879.82373,455.55765 880.409,455.5 881,455.5 Z" />
          </g>
          <g
             transform="matrix(2.7507708,0,0,2.7507708,61.651245,-656.29993)"
             id="g128">
            <text
               id="text132"
               style="font-variant:normal;font-weight:bold;font-size:14px;font-family:Helvetica;-inkscape-font-specification:Helvetica-Bold;writing-mode:lr-tb;fill:#ffffff;fill-opacity:1;fill-rule:nonzero;stroke:none"
               transform="translate(905.09375,484)"><tspan
                 id="tspan130"
                 y="0"
                 x="0 7.7861328 15.572266 23.358398 31.144531 35.03418 40.482422 48.268555 56.054688 64.606445 70.054688 78.606445 86.392578 90.282227 98.833984 107.38574 112.83398 116.72363 125.27539">3480 records during</tspan></text>
            <text
               id="text136"
               style="font-variant:normal;font-weight:bold;font-size:14px;font-family:Helvetica;-inkscape-font-specification:Helvetica-Bold;writing-mode:lr-tb;fill:#ffffff;fill-opacity:1;fill-rule:nonzero;stroke:none"
               transform="translate(910.53125,500)"><tspan
                 id="tspan134"
                 y="0"
                 x="0 8.5517578 16.337891 24.124023 32.675781 40.461914 48.248047 56.799805 64.585938 69.248047 73.910156 79.358398 87.144531 94.930664 98.820312 107.37207 115.1582">headache-free day</tspan></text>
          </g>
          <g
             transform="translate(2175,1086)"
             id="g138">
            <g
               id="g140" />
            <g
               id="g152">
              <g
                 style="opacity:0.2471"
                 id="g150"
                 clip-path="url(#clipPath144)">
                <g
                   id="g148"
                   transform="matrix(2.7507708,0,0,2.7507708,-2106.4719,-1732.6722)">
                  <path
                     id="path146"
                     style="fill:#000000;fill-opacity:1;fill-rule:nonzero;stroke:none"
                     d="m 775,630 h 182 c 0.59094,0 1.17621,0.0576 1.7558,0.17291 0.57953,0.1153 1.14233,0.28601 1.68829,0.51209 0.54596,0.22613 1.06464,0.50342 1.55603,0.83172 0.49134,0.32831 0.94592,0.70136 1.36383,1.11927 0.41785,0.41784 0.7909,0.87243 1.1192,1.36377 0.32831,0.49139 0.60553,1.01007 0.83167,1.55603 0.22613,0.54596 0.39685,1.10876 0.51221,1.68835 0.11529,0.57959 0.17291,1.16486 0.17297,1.75586 v 42 c -6e-5,0.59094 -0.0577,1.17621 -0.17297,1.75574 -0.11536,0.57965 -0.28608,1.14239 -0.51221,1.68835 -0.22614,0.54596 -0.50336,1.06458 -0.83167,1.55597 -0.3283,0.4914 -0.70135,0.94598 -1.1192,1.36389 -0.41791,0.41785 -0.87249,0.7909 -1.36389,1.1192 -0.49139,0.32831 -1.01007,0.60553 -1.55603,0.83167 -0.54596,0.22613 -1.1087,0.39685 -1.68823,0.51215 C 958.17621,689.94226 957.59094,689.99994 957,690 H 775 c -0.59094,-6e-5 -1.17621,-0.0577 -1.75586,-0.17303 -0.57965,-0.1153 -1.14239,-0.28602 -1.68835,-0.51215 -0.54596,-0.22614 -1.06464,-0.50336 -1.55603,-0.83167 -0.49134,-0.3283 -0.94593,-0.70135 -1.36377,-1.1192 -0.41791,-0.41791 -0.79096,-0.87249 -1.11927,-1.36389 -0.3283,-0.49139 -0.60553,-1.01001 -0.83166,-1.55597 -0.22614,-0.54596 -0.39685,-1.1087 -0.51215,-1.68835 C 766.05762,682.17621 766,681.59094 766,681 v -42 c 0,-0.591 0.0576,-1.17627 0.17291,-1.75586 0.11524,-0.57959 0.28595,-1.14239 0.51209,-1.68835 0.22613,-0.54596 0.50335,-1.06464 0.83166,-1.55603 0.32831,-0.49134 0.70142,-0.94593 1.11933,-1.36377 0.41784,-0.41791 0.87243,-0.79096 1.36383,-1.11927 0.49133,-0.3283 1.01001,-0.60559 1.55597,-0.83172 0.54596,-0.22608 1.1087,-0.39679 1.68835,-0.51209 C 773.82379,630.05762 774.40906,630 775,630 Z" />
                </g>
              </g>
            </g>
          </g>
          <g
             transform="matrix(2.7507708,0,0,2.7507708,63.026634,-654.92456)"
             id="g154">
            <path
               id="path156"
               style="fill:#10739e;fill-opacity:1;fill-rule:nonzero;stroke:none"
               d="m 775,630 h 182 c 0.59094,0 1.17621,0.0576 1.7558,0.17291 0.57953,0.1153 1.14233,0.28601 1.68829,0.51209 0.54596,0.22613 1.06464,0.50342 1.55603,0.83172 0.49134,0.32831 0.94592,0.70136 1.36383,1.11927 0.41785,0.41784 0.7909,0.87243 1.1192,1.36377 0.32831,0.49139 0.60553,1.01007 0.83167,1.55603 0.22613,0.54596 0.39685,1.10876 0.51221,1.68835 0.11529,0.57959 0.17291,1.16486 0.17297,1.75586 v 42 c -6e-5,0.59094 -0.0577,1.17621 -0.17297,1.75574 -0.11536,0.57965 -0.28608,1.14239 -0.51221,1.68835 -0.22614,0.54596 -0.50336,1.06458 -0.83167,1.55597 -0.3283,0.4914 -0.70135,0.94598 -1.1192,1.36389 -0.41791,0.41785 -0.87249,0.7909 -1.36389,1.1192 -0.49139,0.32831 -1.01007,0.60553 -1.55603,0.83167 -0.54596,0.22613 -1.1087,0.39685 -1.68823,0.51215 C 958.17621,689.94226 957.59094,689.99994 957,690 H 775 c -0.59094,-6e-5 -1.17621,-0.0577 -1.75586,-0.17303 -0.57965,-0.1153 -1.14239,-0.28602 -1.68835,-0.51215 -0.54596,-0.22614 -1.06464,-0.50336 -1.55603,-0.83167 -0.49134,-0.3283 -0.94593,-0.70135 -1.36377,-1.1192 -0.41791,-0.41791 -0.79096,-0.87249 -1.11927,-1.36389 -0.3283,-0.49139 -0.60553,-1.01001 -0.83166,-1.55597 -0.22614,-0.54596 -0.39685,-1.1087 -0.51215,-1.68835 C 766.05762,682.17621 766,681.59094 766,681 v -42 c 0,-0.591 0.0576,-1.17627 0.17291,-1.75586 0.11524,-0.57959 0.28595,-1.14239 0.51209,-1.68835 0.22613,-0.54596 0.50335,-1.06464 0.83166,-1.55603 0.32831,-0.49134 0.70142,-0.94593 1.11933,-1.36377 0.41784,-0.41791 0.87243,-0.79096 1.36383,-1.11927 0.49133,-0.3283 1.01001,-0.60559 1.55597,-0.83172 0.54596,-0.22608 1.1087,-0.39679 1.68835,-0.51209 C 773.82379,630.05762 774.40906,630 775,630 Z" />
          </g>
          <g
             transform="matrix(2.7507708,0,0,2.7507708,61.651245,-656.29993)"
             id="g158">
            <text
               id="text162"
               style="font-variant:normal;font-weight:bold;font-size:14px;font-family:Helvetica;-inkscape-font-specification:Helvetica-Bold;writing-mode:lr-tb;fill:#ffffff;fill-opacity:1;fill-rule:nonzero;stroke:none"
               transform="translate(768.73438,666)"><tspan
                 id="tspan160"
                 y="0"
                 x="0 7.7861328 15.572266 23.358398 27.248047 32.696289 40.482422 48.268555 56.820312 62.268555 70.820312 78.606445 82.496094 93.385742 97.275391 101.9375 110.48926 114.37891 122.16504 130.7168 138.50293 142.39258 147.05469 152.50293 156.39258 164.94434 173.49609 181.28223 186.73047">890 records with any triggers</tspan></text>
          </g>
          <g
             transform="translate(2758,1086)"
             id="g164">
            <g
               id="g166" />
            <g
               id="g178">
              <g
                 style="opacity:0.2471"
                 id="g176"
                 clip-path="url(#clipPath170)">
                <g
                   id="g174"
                   transform="matrix(2.7507708,0,0,2.7507708,-2689.4719,-1732.6722)">
                  <path
                     id="path172"
                     style="fill:#000000;fill-opacity:1;fill-rule:nonzero;stroke:none"
                     d="m 987,630 h 182 c 0.5909,0 1.1763,0.0576 1.7557,0.17291 0.5796,0.1153 1.1424,0.28601 1.6884,0.51209 0.546,0.22613 1.0647,0.50342 1.556,0.83172 0.4914,0.32831 0.9459,0.70136 1.3638,1.11927 0.4178,0.41784 0.7909,0.87243 1.1193,1.36377 0.3282,0.49139 0.6054,1.01007 0.8316,1.55603 0.2261,0.54596 0.3969,1.10876 0.5122,1.68835 0.1154,0.57959 0.173,1.16486 0.173,1.75586 v 42 c 0,0.59094 -0.058,1.17621 -0.173,1.75574 -0.1153,0.57965 -0.2861,1.14239 -0.5122,1.68835 -0.2262,0.54596 -0.5034,1.06458 -0.8318,1.55597 -0.3282,0.4914 -0.7013,0.94598 -1.1191,1.36389 -0.4179,0.41785 -0.8726,0.7909 -1.3639,1.1192 -0.4913,0.32831 -1.0099,0.60553 -1.5559,0.83167 -0.546,0.22613 -1.1088,0.39685 -1.6884,0.51215 -0.5794,0.11529 -1.1648,0.17297 -1.7557,0.17303 H 987 c -0.59094,-6e-5 -1.17621,-0.0577 -1.75586,-0.17303 -0.57965,-0.1153 -1.14246,-0.28602 -1.68841,-0.51215 -0.54596,-0.22614 -1.06464,-0.50336 -1.55597,-0.83167 -0.49134,-0.3283 -0.94593,-0.70135 -1.36377,-1.1192 -0.41791,-0.41791 -0.79102,-0.87249 -1.11939,-1.36389 -0.32831,-0.49139 -0.60553,-1.01001 -0.83166,-1.55597 -0.22614,-0.54596 -0.39685,-1.1087 -0.51209,-1.68835 C 978.05762,682.17621 978,681.59094 978,681 v -42 c 0,-0.591 0.0576,-1.17627 0.17291,-1.75586 0.11524,-0.57959 0.28595,-1.14239 0.51209,-1.68835 0.22613,-0.54596 0.50335,-1.06464 0.83166,-1.55603 0.32831,-0.49134 0.70142,-0.94593 1.11933,-1.36377 0.41784,-0.41791 0.87243,-0.79096 1.3637,-1.11927 0.4914,-0.3283 1.01008,-0.60559 1.55604,-0.83172 0.54595,-0.22608 1.10876,-0.39679 1.68841,-0.51209 C 985.82379,630.05762 986.40906,630 987,630 Z" />
                </g>
              </g>
            </g>
          </g>
          <g
             transform="matrix(2.7507708,0,0,2.7507708,63.026634,-654.92456)"
             id="g180">
            <path
               id="path182"
               style="fill:#10739e;fill-opacity:1;fill-rule:nonzero;stroke:none"
               d="m 987,630 h 182 c 0.5909,0 1.1763,0.0576 1.7557,0.17291 0.5796,0.1153 1.1424,0.28601 1.6884,0.51209 0.546,0.22613 1.0647,0.50342 1.556,0.83172 0.4914,0.32831 0.9459,0.70136 1.3638,1.11927 0.4178,0.41784 0.7909,0.87243 1.1193,1.36377 0.3282,0.49139 0.6054,1.01007 0.8316,1.55603 0.2261,0.54596 0.3969,1.10876 0.5122,1.68835 0.1154,0.57959 0.173,1.16486 0.173,1.75586 v 42 c 0,0.59094 -0.058,1.17621 -0.173,1.75574 -0.1153,0.57965 -0.2861,1.14239 -0.5122,1.68835 -0.2262,0.54596 -0.5034,1.06458 -0.8318,1.55597 -0.3282,0.4914 -0.7013,0.94598 -1.1191,1.36389 -0.4179,0.41785 -0.8726,0.7909 -1.3639,1.1192 -0.4913,0.32831 -1.0099,0.60553 -1.5559,0.83167 -0.546,0.22613 -1.1088,0.39685 -1.6884,0.51215 -0.5794,0.11529 -1.1648,0.17297 -1.7557,0.17303 H 987 c -0.59094,-6e-5 -1.17621,-0.0577 -1.75586,-0.17303 -0.57965,-0.1153 -1.14246,-0.28602 -1.68841,-0.51215 -0.54596,-0.22614 -1.06464,-0.50336 -1.55597,-0.83167 -0.49134,-0.3283 -0.94593,-0.70135 -1.36377,-1.1192 -0.41791,-0.41791 -0.79102,-0.87249 -1.11939,-1.36389 -0.32831,-0.49139 -0.60553,-1.01001 -0.83166,-1.55597 -0.22614,-0.54596 -0.39685,-1.1087 -0.51209,-1.68835 C 978.05762,682.17621 978,681.59094 978,681 v -42 c 0,-0.591 0.0576,-1.17627 0.17291,-1.75586 0.11524,-0.57959 0.28595,-1.14239 0.51209,-1.68835 0.22613,-0.54596 0.50335,-1.06464 0.83166,-1.55603 0.32831,-0.49134 0.70142,-0.94593 1.11933,-1.36377 0.41784,-0.41791 0.87243,-0.79096 1.3637,-1.11927 0.4914,-0.3283 1.01008,-0.60559 1.55604,-0.83172 0.54595,-0.22608 1.10876,-0.39679 1.68841,-0.51209 C 985.82379,630.05762 986.40906,630 987,630 Z" />
          </g>
          <g
             transform="matrix(2.7507708,0,0,2.7507708,61.651245,-656.29993)"
             id="g184">
            <text
               id="text188"
               style="font-variant:normal;font-weight:bold;font-size:14px;font-family:Helvetica;-inkscape-font-specification:Helvetica-Bold;writing-mode:lr-tb;fill:#ffffff;fill-opacity:1;fill-rule:nonzero;stroke:none"
               transform="translate(983.85938,666)"><tspan
                 id="tspan186"
                 y="0"
                 x="0 7.7861328 15.572266 23.358398 31.144531 35.03418 40.482422 48.268555 56.054688 64.606445 70.054688 78.606445 86.392578 90.282227 101.17188 105.06152 109.72363 118.27539 126.82715 135.37891 140.04102 143.93066 148.59277 154.04102 157.93066 166.48242 175.03418 182.82031">2590 records without trigger</tspan></text>
            <path
               id="path190"
               style="fill:none;stroke:#23445d;stroke-width:1;stroke-linecap:butt;stroke-linejoin:miter;stroke-miterlimit:10;stroke-dasharray:none;stroke-opacity:1"
               d="M 690,405.5 V 421 c 0,6.66666 -3.33331,10 -10,10 H 412 c -6.66666,0 -10,1.67001 -10,5.01001 V 441.03" />
            <path
               id="path192"
               style="fill:#23445d;fill-opacity:1;fill-rule:nonzero;stroke:none"
               d="m 402,451.03 -5,-10 h 10 z" />
            <path
               id="path194"
               style="fill:none;stroke:#23445d;stroke-width:1;stroke-linecap:butt;stroke-linejoin:miter;stroke-miterlimit:10;stroke-dasharray:none;stroke-opacity:1"
               d="m 402,451.03 -5,-10 h 10 z" />
            <path
               id="path196"
               style="fill:none;stroke:#23445d;stroke-width:1;stroke-linecap:butt;stroke-linejoin:miter;stroke-miterlimit:10;stroke-dasharray:none;stroke-opacity:1"
               d="M 690,405.5 V 421 c 0,6.66666 3.33331,10 10,10 h 262 c 6.66669,0 10,1.67001 10,5.01001 V 441.03" />
            <path
               id="path198"
               style="fill:#23445d;fill-opacity:1;fill-rule:nonzero;stroke:none"
               d="m 972,451.03 -5,-10 h 10 z" />
            <path
               id="path200"
               style="fill:none;stroke:#23445d;stroke-width:1;stroke-linecap:butt;stroke-linejoin:miter;stroke-miterlimit:10;stroke-dasharray:none;stroke-opacity:1"
               d="m 972,451.03 -5,-10 h 10 z" />
            <path
               id="path202"
               style="fill:none;stroke:#23445d;stroke-width:1;stroke-linecap:butt;stroke-linejoin:miter;stroke-miterlimit:10;stroke-dasharray:none;stroke-opacity:1"
               d="M 972,515.5 V 540 c 0,6.66669 -3.33331,10 -10,10 h -86 c -6.66669,0 -10,3.33331 -10,10 v 55.53003" />
            <path
               id="path204"
               style="fill:#23445d;fill-opacity:1;fill-rule:nonzero;stroke:none"
               d="m 866,625.53003 -5,-10 h 10 z" />
            <path
               id="path206"
               style="fill:none;stroke:#23445d;stroke-width:1;stroke-linecap:butt;stroke-linejoin:miter;stroke-miterlimit:10;stroke-dasharray:none;stroke-opacity:1"
               d="m 866,625.53003 -5,-10 h 10 z" />
            <path
               id="path208"
               style="fill:none;stroke:#23445d;stroke-width:1;stroke-linecap:butt;stroke-linejoin:miter;stroke-miterlimit:10;stroke-dasharray:none;stroke-opacity:1"
               d="M 972,527.5 V 540 c 0,6.66669 3.33331,10 10,10 h 86 c 6.6666,0 10,3.33331 10,10 v 55.53003" />
            <path
               id="path210"
               style="fill:#23445d;fill-opacity:1;fill-rule:nonzero;stroke:none"
               d="m 1078,625.53003 -5,-10 h 10 z" />
            <path
               id="path212"
               style="fill:none;stroke:#23445d;stroke-width:1;stroke-linecap:butt;stroke-linejoin:miter;stroke-miterlimit:10;stroke-dasharray:none;stroke-opacity:1"
               d="m 1078,625.53003 -5,-10 h 10 z" />
          </g>
          <g
             transform="translate(362,1086)"
             id="g214">
            <g
               id="g216" />
            <g
               id="g228">
              <g
                 style="opacity:0.2471"
                 id="g226"
                 clip-path="url(#clipPath220)">
                <g
                   id="g224"
                   transform="matrix(2.7507708,0,0,2.7507708,-293.47183,-1732.6722)">
                  <path
                     id="path222"
                     style="fill:#000000;fill-opacity:1;fill-rule:nonzero;stroke:none"
                     d="m 116,630 h 182 c 0.59091,0 1.17618,0.0576 1.7558,0.17291 0.57962,0.1153 1.14239,0.28601 1.68835,0.51209 0.54593,0.22613 1.06458,0.50342 1.55594,0.83172 0.49137,0.32831 0.94599,0.70136 1.36386,1.11927 0.41788,0.41784 0.79096,0.87243 1.11927,1.36377 0.3283,0.49139 0.60553,1.01007 0.83166,1.55603 0.22617,0.54596 0.39688,1.10876 0.51218,1.68835 C 306.94235,637.82373 307,638.409 307,639 v 42 c 0,0.59094 -0.0577,1.17621 -0.17294,1.75574 -0.1153,0.57965 -0.28601,1.14239 -0.51218,1.68835 -0.22613,0.54596 -0.50336,1.06458 -0.83166,1.55597 -0.32831,0.4914 -0.70139,0.94598 -1.11927,1.36389 -0.41787,0.41785 -0.87249,0.7909 -1.36386,1.1192 -0.49136,0.32831 -1.01001,0.60553 -1.55594,0.83167 -0.54596,0.22613 -1.10873,0.39685 -1.68835,0.51215 C 299.17618,689.94226 298.59091,689.99994 298,690 H 116 c -0.59095,-6e-5 -1.17623,-0.0577 -1.75583,-0.17303 -0.57959,-0.1153 -1.14237,-0.28602 -1.68834,-0.51215 -0.54596,-0.22614 -1.06462,-0.50336 -1.55597,-0.83167 -0.49136,-0.3283 -0.94597,-0.70135 -1.36383,-1.1192 -0.41787,-0.41791 -0.79095,-0.87249 -1.11926,-1.36389 -0.32832,-0.49139 -0.60555,-1.01001 -0.8317,-1.55597 -0.22614,-0.54596 -0.39685,-1.1087 -0.51214,-1.68835 C 107.05764,682.17621 106.99999,681.59094 107,681 v -42 c -1e-5,-0.591 0.0576,-1.17627 0.17293,-1.75586 0.11529,-0.57959 0.286,-1.14239 0.51214,-1.68835 0.22615,-0.54596 0.50338,-1.06464 0.8317,-1.55603 0.32831,-0.49134 0.70139,-0.94593 1.11926,-1.36377 0.41786,-0.41791 0.87247,-0.79096 1.36383,-1.11927 0.49135,-0.3283 1.01001,-0.60559 1.55597,-0.83172 0.54597,-0.22608 1.10875,-0.39679 1.68834,-0.51209 C 114.82377,630.05762 115.40905,630 116,630 Z" />
                </g>
              </g>
            </g>
          </g>
          <g
             transform="matrix(2.7507708,0,0,2.7507708,63.026634,-654.92456)"
             id="g230">
            <path
               id="path232"
               style="fill:#10739e;fill-opacity:1;fill-rule:nonzero;stroke:none"
               d="m 116,630 h 182 c 0.59091,0 1.17618,0.0576 1.7558,0.17291 0.57962,0.1153 1.14239,0.28601 1.68835,0.51209 0.54593,0.22613 1.06458,0.50342 1.55594,0.83172 0.49137,0.32831 0.94599,0.70136 1.36386,1.11927 0.41788,0.41784 0.79096,0.87243 1.11927,1.36377 0.3283,0.49139 0.60553,1.01007 0.83166,1.55603 0.22617,0.54596 0.39688,1.10876 0.51218,1.68835 C 306.94235,637.82373 307,638.409 307,639 v 42 c 0,0.59094 -0.0577,1.17621 -0.17294,1.75574 -0.1153,0.57965 -0.28601,1.14239 -0.51218,1.68835 -0.22613,0.54596 -0.50336,1.06458 -0.83166,1.55597 -0.32831,0.4914 -0.70139,0.94598 -1.11927,1.36389 -0.41787,0.41785 -0.87249,0.7909 -1.36386,1.1192 -0.49136,0.32831 -1.01001,0.60553 -1.55594,0.83167 -0.54596,0.22613 -1.10873,0.39685 -1.68835,0.51215 C 299.17618,689.94226 298.59091,689.99994 298,690 H 116 c -0.59095,-6e-5 -1.17623,-0.0577 -1.75583,-0.17303 -0.57959,-0.1153 -1.14237,-0.28602 -1.68834,-0.51215 -0.54596,-0.22614 -1.06462,-0.50336 -1.55597,-0.83167 -0.49136,-0.3283 -0.94597,-0.70135 -1.36383,-1.1192 -0.41787,-0.41791 -0.79095,-0.87249 -1.11926,-1.36389 -0.32832,-0.49139 -0.60555,-1.01001 -0.8317,-1.55597 -0.22614,-0.54596 -0.39685,-1.1087 -0.51214,-1.68835 C 107.05764,682.17621 106.99999,681.59094 107,681 v -42 c -1e-5,-0.591 0.0576,-1.17627 0.17293,-1.75586 0.11529,-0.57959 0.286,-1.14239 0.51214,-1.68835 0.22615,-0.54596 0.50338,-1.06464 0.8317,-1.55603 0.32831,-0.49134 0.70139,-0.94593 1.11926,-1.36377 0.41786,-0.41791 0.87247,-0.79096 1.36383,-1.11927 0.49135,-0.3283 1.01001,-0.60559 1.55597,-0.83172 0.54597,-0.22608 1.10875,-0.39679 1.68834,-0.51209 C 114.82377,630.05762 115.40905,630 116,630 Z" />
          </g>
          <g
             transform="matrix(2.7507708,0,0,2.7507708,61.651245,-656.29993)"
             id="g234">
            <text
               id="text238"
               style="font-variant:normal;font-weight:bold;font-size:14px;font-family:Helvetica;-inkscape-font-specification:Helvetica-Bold;writing-mode:lr-tb;fill:#ffffff;fill-opacity:1;fill-rule:nonzero;stroke:none"
               transform="translate(129.95312,666)"><tspan
                 id="tspan236"
                 y="0"
                 x="0 7.7861328 15.572266 23.358398 27.248047 39.696289 43.585938 52.137695 57.585938 65.37207 69.261719 77.813477 85.599609 89.489258 98.041016 105.82715 113.61328 122.16504 129.95117 137.7373 146.28906">336 migraine headache</tspan></text>
          </g>
          <g
             transform="translate(1435,1086)"
             id="g240">
            <g
               id="g242" />
            <g
               id="g254">
              <g
                 style="opacity:0.2471"
                 id="g252"
                 clip-path="url(#clipPath246)">
                <g
                   id="g250"
                   transform="matrix(2.7507708,0,0,2.7507708,-1366.4718,-1732.6722)">
                  <path
                     id="path248"
                     style="fill:#000000;fill-opacity:1;fill-rule:nonzero;stroke:none"
                     d="m 506,630 h 182 c 0.59094,0 1.17621,0.0576 1.75574,0.17291 0.57959,0.1153 1.14233,0.28601 1.68829,0.51209 0.54596,0.22613 1.06464,0.50342 1.55603,0.83172 0.49133,0.32831 0.94592,0.70136 1.36383,1.11927 0.41779,0.41784 0.7909,0.87243 1.11926,1.36377 0.32825,0.49139 0.60547,1.01007 0.83167,1.55603 0.22613,0.54596 0.39685,1.10876 0.51215,1.68835 0.11529,0.57959 0.17297,1.16486 0.17303,1.75586 v 42 c -6e-5,0.59094 -0.0577,1.17621 -0.17303,1.75574 -0.1153,0.57965 -0.28602,1.14239 -0.51215,1.68835 -0.2262,0.54596 -0.50342,1.06458 -0.83167,1.55597 -0.32836,0.4914 -0.70147,0.94598 -1.11926,1.36389 -0.41791,0.41785 -0.8725,0.7909 -1.36389,1.1192 -0.49133,0.32831 -1.01001,0.60553 -1.55597,0.83167 -0.54596,0.22613 -1.1087,0.39685 -1.68829,0.51215 C 689.17621,689.94226 688.59094,689.99994 688,690 H 506 c -0.59097,-6e-5 -1.17627,-0.0577 -1.75586,-0.17303 -0.57962,-0.1153 -1.14239,-0.28602 -1.68835,-0.51215 -0.54596,-0.22614 -1.06464,-0.50336 -1.556,-0.83167 -0.49134,-0.3283 -0.94593,-0.70135 -1.36377,-1.1192 -0.41788,-0.41791 -0.79096,-0.87249 -1.11927,-1.36389 -0.32833,-0.49139 -0.60556,-1.01001 -0.83172,-1.55597 -0.22617,-0.54596 -0.39688,-1.1087 -0.51215,-1.68835 C 497.05759,682.17621 496.99997,681.59094 497,681 v -42 c -3e-5,-0.591 0.0576,-1.17627 0.17288,-1.75586 0.11527,-0.57959 0.28598,-1.14239 0.51212,-1.68835 0.22616,-0.54596 0.50342,-1.06464 0.83172,-1.55603 0.32834,-0.49134 0.70142,-0.94593 1.1193,-1.36377 0.41784,-0.41791 0.87243,-0.79096 1.3638,-1.11927 0.49136,-0.3283 1.01001,-0.60559 1.55597,-0.83172 0.54596,-0.22608 1.10876,-0.39679 1.68838,-0.51209 C 504.82373,630.05762 505.40903,630 506,630 Z" />
                </g>
              </g>
            </g>
          </g>
          <g
             transform="matrix(2.7507708,0,0,2.7507708,63.026634,-654.92456)"
             id="g256">
            <path
               id="path258"
               style="fill:#10739e;fill-opacity:1;fill-rule:nonzero;stroke:none"
               d="m 506,630 h 182 c 0.59094,0 1.17621,0.0576 1.75574,0.17291 0.57959,0.1153 1.14233,0.28601 1.68829,0.51209 0.54596,0.22613 1.06464,0.50342 1.55603,0.83172 0.49133,0.32831 0.94592,0.70136 1.36383,1.11927 0.41779,0.41784 0.7909,0.87243 1.11926,1.36377 0.32825,0.49139 0.60547,1.01007 0.83167,1.55603 0.22613,0.54596 0.39685,1.10876 0.51215,1.68835 0.11529,0.57959 0.17297,1.16486 0.17303,1.75586 v 42 c -6e-5,0.59094 -0.0577,1.17621 -0.17303,1.75574 -0.1153,0.57965 -0.28602,1.14239 -0.51215,1.68835 -0.2262,0.54596 -0.50342,1.06458 -0.83167,1.55597 -0.32836,0.4914 -0.70147,0.94598 -1.11926,1.36389 -0.41791,0.41785 -0.8725,0.7909 -1.36389,1.1192 -0.49133,0.32831 -1.01001,0.60553 -1.55597,0.83167 -0.54596,0.22613 -1.1087,0.39685 -1.68829,0.51215 C 689.17621,689.94226 688.59094,689.99994 688,690 H 506 c -0.59097,-6e-5 -1.17627,-0.0577 -1.75586,-0.17303 -0.57962,-0.1153 -1.14239,-0.28602 -1.68835,-0.51215 -0.54596,-0.22614 -1.06464,-0.50336 -1.556,-0.83167 -0.49134,-0.3283 -0.94593,-0.70135 -1.36377,-1.1192 -0.41788,-0.41791 -0.79096,-0.87249 -1.11927,-1.36389 -0.32833,-0.49139 -0.60556,-1.01001 -0.83172,-1.55597 -0.22617,-0.54596 -0.39688,-1.1087 -0.51215,-1.68835 C 497.05759,682.17621 496.99997,681.59094 497,681 v -42 c -3e-5,-0.591 0.0576,-1.17627 0.17288,-1.75586 0.11527,-0.57959 0.28598,-1.14239 0.51212,-1.68835 0.22616,-0.54596 0.50342,-1.06464 0.83172,-1.55603 0.32834,-0.49134 0.70142,-0.94593 1.1193,-1.36377 0.41784,-0.41791 0.87243,-0.79096 1.3638,-1.11927 0.49136,-0.3283 1.01001,-0.60559 1.55597,-0.83172 0.54596,-0.22608 1.10876,-0.39679 1.68838,-0.51209 C 504.82373,630.05762 505.40903,630 506,630 Z" />
          </g>
          <g
             transform="matrix(2.7507708,0,0,2.7507708,61.651245,-656.29993)"
             id="g260">
            <text
               id="text264"
               style="font-variant:normal;font-weight:bold;font-size:14px;font-family:Helvetica;-inkscape-font-specification:Helvetica-Bold;writing-mode:lr-tb;fill:#ffffff;fill-opacity:1;fill-rule:nonzero;stroke:none"
               transform="translate(504.79688,666)"><tspan
                 id="tspan262"
                 y="0"
                 x="0 7.7861328 15.572266 23.358398 27.248047 35.799805 44.351562 52.90332 57.56543 70.013672 73.90332 82.455078 87.90332 95.689453 99.579102 108.13086 115.91699 119.80664 128.3584 136.14453 143.93066 152.48242 160.26855 168.05469 176.60645">763 non-migraine headache</tspan></text>
          </g>
          <g
             transform="translate(170,1416)"
             id="g266">
            <g
               id="g268" />
            <g
               id="g280">
              <g
                 style="opacity:0.2471"
                 id="g278"
                 clip-path="url(#clipPath272)">
                <g
                   id="g276"
                   transform="matrix(2.7507708,0,0,2.7507708,-101.47183,-2062.6724)">
                  <path
                     id="path274"
                     style="fill:#000000;fill-opacity:1;fill-rule:nonzero;stroke:none"
                     d="m 47.5,750 h 137 c 0.68944,0 1.37224,0.0673 2.04843,0.20172 0.67619,0.13452 1.33277,0.33368 1.96971,0.59741 0.63695,0.26386 1.24205,0.58728 1.81531,0.9704 0.57324,0.383 1.10362,0.8183 1.59114,1.30579 0.4875,0.48749 0.92276,1.01782 1.3058,1.59112 0.38304,0.57325 0.70647,1.17835 0.97031,1.81531 0.26384,0.63696 0.46301,1.29352 0.59752,1.96973 0.1345,0.67621 0.20176,1.35901 0.20178,2.04852 v 49 c -2e-5,0.68939 -0.0673,1.37219 -0.20178,2.0484 -0.13451,0.67621 -0.33368,1.33276 -0.59752,1.96973 -0.26384,0.63696 -0.58727,1.24206 -0.97031,1.81531 -0.38304,0.57324 -0.8183,1.10363 -1.3058,1.59118 -0.48752,0.48749 -1.0179,0.92273 -1.59115,1.30579 -0.57325,0.38299 -1.17835,0.70642 -1.8153,0.97027 -0.63694,0.26386 -1.29352,0.46302 -1.96971,0.59754 -0.67619,0.13446 -1.35899,0.20172 -2.04843,0.20178 h -137 c -0.689442,-6e-5 -1.372257,-0.0673 -2.048454,-0.20178 -0.67619,-0.13452 -1.332764,-0.33368 -1.969727,-0.59754 -0.636959,-0.26385 -1.242065,-0.58734 -1.815315,-0.97033 -0.573246,-0.383 -1.103623,-0.81824 -1.591129,-1.30573 -0.487511,-0.48755 -0.922783,-1.01794 -1.305813,-1.59118 -0.38303,-0.57325 -0.706467,-1.17835 -0.970303,-1.81531 -0.263836,-0.63697 -0.463005,-1.29352 -0.597507,-1.96973 C 37.067249,810.87219 36.999996,810.18939 37,809.5 v -49 c -4e-6,-0.68951 0.06725,-1.37238 0.201752,-2.04858 0.134502,-0.67615 0.333671,-1.33271 0.597507,-1.96967 0.263836,-0.63696 0.587273,-1.24206 0.970303,-1.81525 0.38303,-0.5733 0.818302,-1.10369 1.305813,-1.59118 0.487506,-0.48749 1.017883,-0.92279 1.591133,-1.30585 0.573246,-0.38306 1.178352,-0.70648 1.815311,-0.97034 0.636963,-0.26373 1.293541,-0.46289 1.969731,-0.59741 C 46.127743,750.06726 46.810558,750 47.5,750 Z" />
                </g>
              </g>
            </g>
          </g>
          <g
             transform="matrix(2.7507708,0,0,2.7507708,63.026634,-654.92456)"
             id="g282">
            <path
               id="path284"
               style="fill:#10739e;fill-opacity:1;fill-rule:nonzero;stroke:none"
               d="m 47.5,750 h 137 c 0.68944,0 1.37224,0.0673 2.04843,0.20172 0.67619,0.13452 1.33277,0.33368 1.96971,0.59741 0.63695,0.26386 1.24205,0.58728 1.81531,0.9704 0.57324,0.383 1.10362,0.8183 1.59114,1.30579 0.4875,0.48749 0.92276,1.01782 1.3058,1.59112 0.38304,0.57325 0.70647,1.17835 0.97031,1.81531 0.26384,0.63696 0.46301,1.29352 0.59752,1.96973 0.1345,0.67621 0.20176,1.35901 0.20178,2.04852 v 49 c -2e-5,0.68939 -0.0673,1.37219 -0.20178,2.0484 -0.13451,0.67621 -0.33368,1.33276 -0.59752,1.96973 -0.26384,0.63696 -0.58727,1.24206 -0.97031,1.81531 -0.38304,0.57324 -0.8183,1.10363 -1.3058,1.59118 -0.48752,0.48749 -1.0179,0.92273 -1.59115,1.30579 -0.57325,0.38299 -1.17835,0.70642 -1.8153,0.97027 -0.63694,0.26386 -1.29352,0.46302 -1.96971,0.59754 -0.67619,0.13446 -1.35899,0.20172 -2.04843,0.20178 h -137 c -0.689442,-6e-5 -1.372257,-0.0673 -2.048454,-0.20178 -0.67619,-0.13452 -1.332764,-0.33368 -1.969727,-0.59754 -0.636959,-0.26385 -1.242065,-0.58734 -1.815315,-0.97033 -0.573246,-0.383 -1.103623,-0.81824 -1.591129,-1.30573 -0.487511,-0.48755 -0.922783,-1.01794 -1.305813,-1.59118 -0.38303,-0.57325 -0.706467,-1.17835 -0.970303,-1.81531 -0.263836,-0.63697 -0.463005,-1.29352 -0.597507,-1.96973 C 37.067249,810.87219 36.999996,810.18939 37,809.5 v -49 c -4e-6,-0.68951 0.06725,-1.37238 0.201752,-2.04858 0.134502,-0.67615 0.333671,-1.33271 0.597507,-1.96967 0.263836,-0.63696 0.587273,-1.24206 0.970303,-1.81525 0.38303,-0.5733 0.818302,-1.10369 1.305813,-1.59118 0.487506,-0.48749 1.017883,-0.92279 1.591133,-1.30585 0.573246,-0.38306 1.178352,-0.70648 1.815311,-0.97034 0.636963,-0.26373 1.293541,-0.46289 1.969731,-0.59741 C 46.127743,750.06726 46.810558,750 47.5,750 Z" />
          </g>
          <g
             transform="matrix(2.7507708,0,0,2.7507708,61.651245,-656.29993)"
             id="g286">
            <text
               id="text290"
               style="font-variant:normal;font-weight:bold;font-size:14px;font-family:Helvetica;-inkscape-font-specification:Helvetica-Bold;writing-mode:lr-tb;fill:#ffffff;fill-opacity:1;fill-rule:nonzero;stroke:none"
               transform="translate(46.75,783)"><tspan
                 id="tspan288"
                 y="0"
                 x="0 7.7861328 15.572266 23.358398 27.248047 32.696289 40.482422 48.268555 56.820312 62.268555 70.820312 78.606445 82.496094 93.385742 97.275391 101.9375 110.48926 114.37891 122.16504 130.7168">280 records with any</tspan></text>
            <text
               id="text294"
               style="font-variant:normal;font-weight:bold;font-size:14px;font-family:Helvetica;-inkscape-font-specification:Helvetica-Bold;writing-mode:lr-tb;fill:#ffffff;fill-opacity:1;fill-rule:nonzero;stroke:none"
               transform="translate(89.9375,799)"><tspan
                 id="tspan292"
                 y="0"
                 x="0 4.6621094 10.110352 14 22.551758 31.103516 38.889648 44.337891">triggers</tspan></text>
          </g>
          <g
             transform="translate(665,1416)"
             id="g296">
            <g
               id="g298" />
            <g
               id="g310">
              <g
                 style="opacity:0.2471"
                 id="g308"
                 clip-path="url(#clipPath302)">
                <g
                   id="g306"
                   transform="matrix(2.7507708,0,0,2.7507708,-596.4718,-2062.6724)">
                  <path
                     id="path304"
                     style="fill:#000000;fill-opacity:1;fill-rule:nonzero;stroke:none"
                     d="m 227.5,750 h 141 c 0.68942,0 1.37222,0.0673 2.0484,0.20172 0.67618,0.13452 1.33276,0.33368 1.96973,0.59741 0.63693,0.26386 1.24203,0.58728 1.81527,0.9704 0.57328,0.383 1.10367,0.8183 1.59119,1.30579 0.48749,0.48749 0.92276,1.01782 1.30579,1.59112 0.38302,0.57325 0.70648,1.17835 0.9703,1.81531 0.26383,0.63696 0.46302,1.29352 0.59754,1.96973 0.13449,0.67621 0.20175,1.35901 0.20178,2.04852 v 49 c -3e-5,0.68939 -0.0673,1.37219 -0.20178,2.0484 -0.13452,0.67621 -0.33371,1.33276 -0.59754,1.96973 -0.26382,0.63696 -0.58728,1.24206 -0.9703,1.81531 -0.38303,0.57324 -0.8183,1.10363 -1.30579,1.59118 -0.48752,0.48749 -1.01791,0.92273 -1.59119,1.30579 -0.57324,0.38299 -1.17834,0.70642 -1.81527,0.97027 -0.63697,0.26386 -1.29355,0.46302 -1.96973,0.59754 -0.67618,0.13446 -1.35898,0.20172 -2.0484,0.20178 h -141 c -0.68944,-6e-5 -1.37227,-0.0673 -2.04846,-0.20178 -0.6762,-0.13452 -1.33277,-0.33368 -1.96973,-0.59754 -0.63695,-0.26385 -1.24205,-0.58734 -1.81531,-0.97033 -0.57325,-0.383 -1.10363,-0.81824 -1.59114,-1.30573 -0.4875,-0.48755 -0.92277,-1.01794 -1.30581,-1.59118 -0.38304,-0.57325 -0.70647,-1.17835 -0.97031,-1.81531 -0.26384,-0.63697 -0.463,-1.29352 -0.5975,-1.96973 C 217.06723,810.87219 216.99998,810.18939 217,809.5 v -49 c -2e-5,-0.68951 0.0672,-1.37238 0.20174,-2.04858 0.1345,-0.67615 0.33368,-1.33271 0.59752,-1.96967 0.26382,-0.63696 0.58725,-1.24206 0.97029,-1.81525 0.38304,-0.5733 0.81831,-1.10369 1.30581,-1.59118 0.48751,-0.48749 1.01789,-0.92279 1.59113,-1.30585 0.57326,-0.38306 1.17836,-0.70648 1.81531,-0.97034 0.63697,-0.26373 1.29354,-0.46289 1.96974,-0.59741 C 226.12773,750.06726 226.81056,750 227.5,750 Z" />
                </g>
              </g>
            </g>
          </g>
          <g
             transform="matrix(2.7507708,0,0,2.7507708,63.026634,-654.92456)"
             id="g312">
            <path
               id="path314"
               style="fill:#10739e;fill-opacity:1;fill-rule:nonzero;stroke:none"
               d="m 227.5,750 h 141 c 0.68942,0 1.37222,0.0673 2.0484,0.20172 0.67618,0.13452 1.33276,0.33368 1.96973,0.59741 0.63693,0.26386 1.24203,0.58728 1.81527,0.9704 0.57328,0.383 1.10367,0.8183 1.59119,1.30579 0.48749,0.48749 0.92276,1.01782 1.30579,1.59112 0.38302,0.57325 0.70648,1.17835 0.9703,1.81531 0.26383,0.63696 0.46302,1.29352 0.59754,1.96973 0.13449,0.67621 0.20175,1.35901 0.20178,2.04852 v 49 c -3e-5,0.68939 -0.0673,1.37219 -0.20178,2.0484 -0.13452,0.67621 -0.33371,1.33276 -0.59754,1.96973 -0.26382,0.63696 -0.58728,1.24206 -0.9703,1.81531 -0.38303,0.57324 -0.8183,1.10363 -1.30579,1.59118 -0.48752,0.48749 -1.01791,0.92273 -1.59119,1.30579 -0.57324,0.38299 -1.17834,0.70642 -1.81527,0.97027 -0.63697,0.26386 -1.29355,0.46302 -1.96973,0.59754 -0.67618,0.13446 -1.35898,0.20172 -2.0484,0.20178 h -141 c -0.68944,-6e-5 -1.37227,-0.0673 -2.04846,-0.20178 -0.6762,-0.13452 -1.33277,-0.33368 -1.96973,-0.59754 -0.63695,-0.26385 -1.24205,-0.58734 -1.81531,-0.97033 -0.57325,-0.383 -1.10363,-0.81824 -1.59114,-1.30573 -0.4875,-0.48755 -0.92277,-1.01794 -1.30581,-1.59118 -0.38304,-0.57325 -0.70647,-1.17835 -0.97031,-1.81531 -0.26384,-0.63697 -0.463,-1.29352 -0.5975,-1.96973 C 217.06723,810.87219 216.99998,810.18939 217,809.5 v -49 c -2e-5,-0.68951 0.0672,-1.37238 0.20174,-2.04858 0.1345,-0.67615 0.33368,-1.33271 0.59752,-1.96967 0.26382,-0.63696 0.58725,-1.24206 0.97029,-1.81525 0.38304,-0.5733 0.81831,-1.10369 1.30581,-1.59118 0.48751,-0.48749 1.01789,-0.92279 1.59113,-1.30585 0.57326,-0.38306 1.17836,-0.70648 1.81531,-0.97034 0.63697,-0.26373 1.29354,-0.46289 1.96974,-0.59741 C 226.12773,750.06726 226.81056,750 227.5,750 Z" />
          </g>
          <g
             transform="matrix(2.7507708,0,0,2.7507708,61.651245,-656.29993)"
             id="g316">
            <text
               id="text320"
               style="font-variant:normal;font-weight:bold;font-size:14px;font-family:Helvetica;-inkscape-font-specification:Helvetica-Bold;writing-mode:lr-tb;fill:#ffffff;fill-opacity:1;fill-rule:nonzero;stroke:none"
               transform="translate(235.76563,783)"><tspan
                 id="tspan318"
                 y="0"
                 x="0 7.7861328 15.572266 19.461914 24.910156 32.696289 40.482422 49.03418 54.482422 63.03418 70.820312 74.709961 85.599609 89.489258 94.151367 102.70312 111.25488 119.80664">56 records without</tspan></text>
            <text
               id="text324"
               style="font-variant:normal;font-weight:bold;font-size:14px;font-family:Helvetica;-inkscape-font-specification:Helvetica-Bold;writing-mode:lr-tb;fill:#ffffff;fill-opacity:1;fill-rule:nonzero;stroke:none"
               transform="translate(275.82813,799)"><tspan
                 id="tspan322"
                 y="0"
                 x="0 4.6621094 10.110352 14 22.551758 31.103516 38.889648">trigger</tspan></text>
          </g>
          <g
             transform="translate(1215,1416)"
             id="g326">
            <g
               id="g328" />
            <g
               id="g340">
              <g
                 style="opacity:0.2471"
                 id="g338"
                 clip-path="url(#clipPath332)">
                <g
                   id="g336"
                   transform="matrix(2.7507708,0,0,2.7507708,-1146.4718,-2062.6724)">
                  <path
                     id="path334"
                     style="fill:#000000;fill-opacity:1;fill-rule:nonzero;stroke:none"
                     d="m 427.5,750 h 139 c 0.68945,0 1.37225,0.0673 2.0484,0.20172 0.67621,0.13452 1.33276,0.33368 1.96967,0.59741 0.63696,0.26386 1.24206,0.58728 1.8153,0.9704 0.57325,0.383 1.10364,0.8183 1.59119,1.30579 0.48749,0.48749 0.92273,1.01782 1.30573,1.59112 0.38311,0.57325 0.70654,1.17835 0.97039,1.81531 0.26386,0.63696 0.46302,1.29352 0.59754,1.96973 C 576.93274,759.12769 577,759.81049 577,760.5 v 49 c 0,0.68939 -0.0673,1.37219 -0.20178,2.0484 -0.13452,0.67621 -0.33368,1.33276 -0.59754,1.96973 -0.26385,0.63696 -0.58728,1.24206 -0.97039,1.81531 -0.383,0.57324 -0.81824,1.10363 -1.30573,1.59118 -0.48755,0.48749 -1.01794,0.92273 -1.59119,1.30579 -0.57324,0.38299 -1.17834,0.70642 -1.8153,0.97027 -0.63691,0.26386 -1.29346,0.46302 -1.96967,0.59754 -0.67615,0.13446 -1.35895,0.20172 -2.0484,0.20178 h -139 c -0.68945,-6e-5 -1.37228,-0.0673 -2.04846,-0.20178 -0.67624,-0.13452 -1.33283,-0.33368 -1.96979,-0.59754 -0.63696,-0.26385 -1.24206,-0.58734 -1.81534,-0.97033 -0.57321,-0.383 -1.10357,-0.81824 -1.59106,-1.30573 -0.48752,-0.48755 -0.92279,-1.01794 -1.30585,-1.59118 -0.38303,-0.57325 -0.70648,-1.17835 -0.97031,-1.81531 -0.26382,-0.63697 -0.46298,-1.29352 -0.59744,-1.96973 C 417.06723,810.87219 416.99997,810.18939 417,809.5 v -49 c -3e-5,-0.68951 0.0672,-1.37238 0.20172,-2.04858 0.13449,-0.67615 0.33365,-1.33271 0.59747,-1.96967 0.26383,-0.63696 0.58728,-1.24206 0.97031,-1.81525 0.38306,-0.5733 0.81833,-1.10369 1.30585,-1.59118 0.48749,-0.48749 1.01785,-0.92279 1.59109,-1.30585 0.57325,-0.38306 1.17835,-0.70648 1.81531,-0.97034 0.63696,-0.26373 1.29355,-0.46289 1.96979,-0.59741 C 426.12772,750.06726 426.81055,750 427.5,750 Z" />
                </g>
              </g>
            </g>
          </g>
          <g
             transform="matrix(2.7507708,0,0,2.7507708,63.026634,-654.92456)"
             id="g342">
            <path
               id="path344"
               style="fill:#10739e;fill-opacity:1;fill-rule:nonzero;stroke:none"
               d="m 427.5,750 h 139 c 0.68945,0 1.37225,0.0673 2.0484,0.20172 0.67621,0.13452 1.33276,0.33368 1.96967,0.59741 0.63696,0.26386 1.24206,0.58728 1.8153,0.9704 0.57325,0.383 1.10364,0.8183 1.59119,1.30579 0.48749,0.48749 0.92273,1.01782 1.30573,1.59112 0.38311,0.57325 0.70654,1.17835 0.97039,1.81531 0.26386,0.63696 0.46302,1.29352 0.59754,1.96973 C 576.93274,759.12769 577,759.81049 577,760.5 v 49 c 0,0.68939 -0.0673,1.37219 -0.20178,2.0484 -0.13452,0.67621 -0.33368,1.33276 -0.59754,1.96973 -0.26385,0.63696 -0.58728,1.24206 -0.97039,1.81531 -0.383,0.57324 -0.81824,1.10363 -1.30573,1.59118 -0.48755,0.48749 -1.01794,0.92273 -1.59119,1.30579 -0.57324,0.38299 -1.17834,0.70642 -1.8153,0.97027 -0.63691,0.26386 -1.29346,0.46302 -1.96967,0.59754 -0.67615,0.13446 -1.35895,0.20172 -2.0484,0.20178 h -139 c -0.68945,-6e-5 -1.37228,-0.0673 -2.04846,-0.20178 -0.67624,-0.13452 -1.33283,-0.33368 -1.96979,-0.59754 -0.63696,-0.26385 -1.24206,-0.58734 -1.81534,-0.97033 -0.57321,-0.383 -1.10357,-0.81824 -1.59106,-1.30573 -0.48752,-0.48755 -0.92279,-1.01794 -1.30585,-1.59118 -0.38303,-0.57325 -0.70648,-1.17835 -0.97031,-1.81531 -0.26382,-0.63697 -0.46298,-1.29352 -0.59744,-1.96973 C 417.06723,810.87219 416.99997,810.18939 417,809.5 v -49 c -3e-5,-0.68951 0.0672,-1.37238 0.20172,-2.04858 0.13449,-0.67615 0.33365,-1.33271 0.59747,-1.96967 0.26383,-0.63696 0.58728,-1.24206 0.97031,-1.81525 0.38306,-0.5733 0.81833,-1.10369 1.30585,-1.59118 0.48749,-0.48749 1.01785,-0.92279 1.59109,-1.30585 0.57325,-0.38306 1.17835,-0.70648 1.81531,-0.97034 0.63696,-0.26373 1.29355,-0.46289 1.96979,-0.59741 C 426.12772,750.06726 426.81055,750 427.5,750 Z" />
          </g>
          <g
             transform="matrix(2.7507708,0,0,2.7507708,61.651245,-656.29993)"
             id="g346">
            <text
               id="text350"
               style="font-variant:normal;font-weight:bold;font-size:14px;font-family:Helvetica;-inkscape-font-specification:Helvetica-Bold;writing-mode:lr-tb;fill:#ffffff;fill-opacity:1;fill-rule:nonzero;stroke:none"
               transform="translate(427.75,783)"><tspan
                 id="tspan348"
                 y="0"
                 x="0 7.7861328 15.572266 23.358398 27.248047 32.696289 40.482422 48.268555 56.820312 62.268555 70.820312 78.606445 82.496094 93.385742 97.275391 101.9375 110.48926 114.37891 122.16504 130.7168">492 records with any</tspan></text>
            <text
               id="text354"
               style="font-variant:normal;font-weight:bold;font-size:14px;font-family:Helvetica;-inkscape-font-specification:Helvetica-Bold;writing-mode:lr-tb;fill:#ffffff;fill-opacity:1;fill-rule:nonzero;stroke:none"
               transform="translate(470.9375,799)"><tspan
                 id="tspan352"
                 y="0"
                 x="0 4.6621094 10.110352 14 22.551758 31.103516 38.889648 44.337891">triggers</tspan></text>
          </g>
          <g
             transform="translate(1738,1416)"
             id="g356">
            <g
               id="g358" />
            <g
               id="g370">
              <g
                 style="opacity:0.2471"
                 id="g368"
                 clip-path="url(#clipPath362)">
                <g
                   id="g366"
                   transform="matrix(2.7507708,0,0,2.7507708,-1669.4718,-2062.6724)">
                  <path
                     id="path364"
                     style="fill:#000000;fill-opacity:1;fill-rule:nonzero;stroke:none"
                     d="m 617.5,750 h 139 c 0.68939,0 1.37219,0.0673 2.0484,0.20172 0.67615,0.13452 1.3327,0.33368 1.96967,0.59741 0.6369,0.26386 1.242,0.58728 1.81524,0.9704 0.57331,0.383 1.1037,0.8183 1.59125,1.30579 0.48749,0.48749 0.92273,1.01782 1.30573,1.59112 0.38305,0.57325 0.70648,1.17835 0.97033,1.81531 0.26386,0.63696 0.46302,1.29352 0.59754,1.96973 0.13452,0.67621 0.20178,1.35901 0.20184,2.04852 v 49 c -6e-5,0.68939 -0.0673,1.37219 -0.20184,2.0484 -0.13459,0.67621 -0.33374,1.33276 -0.5976,1.96973 -0.26385,0.63696 -0.58728,1.24206 -0.97027,1.81531 -0.383,0.57324 -0.81824,1.10363 -1.30573,1.59118 -0.48755,0.48749 -1.01794,0.92273 -1.59119,1.30579 -0.5733,0.38299 -1.1784,0.70642 -1.8153,0.97027 -0.63697,0.26386 -1.29352,0.46302 -1.96967,0.59754 -0.67621,0.13446 -1.35901,0.20172 -2.0484,0.20178 h -139 c -0.68945,-6e-5 -1.37225,-0.0673 -2.04846,-0.20178 -0.67621,-0.13452 -1.33277,-0.33368 -1.96979,-0.59754 -0.6369,-0.26385 -1.242,-0.58734 -1.81531,-0.97033 -0.57324,-0.383 -1.10357,-0.81824 -1.59106,-1.30573 -0.48749,-0.48755 -0.92279,-1.01794 -1.30585,-1.59118 -0.38299,-0.57325 -0.70642,-1.17835 -0.97027,-1.81531 -0.26386,-0.63697 -0.46302,-1.29352 -0.59748,-1.96973 C 607.06726,810.87219 607,810.18939 607,809.5 v -49 c 0,-0.68951 0.0673,-1.37238 0.20178,-2.04858 0.13446,-0.67615 0.33362,-1.33271 0.59748,-1.96967 0.26385,-0.63696 0.58728,-1.24206 0.97027,-1.81525 0.38306,-0.5733 0.81836,-1.10369 1.30585,-1.59118 0.48749,-0.48749 1.01782,-0.92279 1.59106,-1.30585 0.57331,-0.38306 1.17841,-0.70648 1.81531,-0.97034 0.63702,-0.26373 1.29358,-0.46289 1.96979,-0.59741 C 616.12775,750.06726 616.81055,750 617.5,750 Z" />
                </g>
              </g>
            </g>
          </g>
          <g
             transform="matrix(2.7507708,0,0,2.7507708,63.026634,-654.92456)"
             id="g372">
            <path
               id="path374"
               style="fill:#10739e;fill-opacity:1;fill-rule:nonzero;stroke:none"
               d="m 617.5,750 h 139 c 0.68939,0 1.37219,0.0673 2.0484,0.20172 0.67615,0.13452 1.3327,0.33368 1.96967,0.59741 0.6369,0.26386 1.242,0.58728 1.81524,0.9704 0.57331,0.383 1.1037,0.8183 1.59125,1.30579 0.48749,0.48749 0.92273,1.01782 1.30573,1.59112 0.38305,0.57325 0.70648,1.17835 0.97033,1.81531 0.26386,0.63696 0.46302,1.29352 0.59754,1.96973 0.13452,0.67621 0.20178,1.35901 0.20184,2.04852 v 49 c -6e-5,0.68939 -0.0673,1.37219 -0.20184,2.0484 -0.13459,0.67621 -0.33374,1.33276 -0.5976,1.96973 -0.26385,0.63696 -0.58728,1.24206 -0.97027,1.81531 -0.383,0.57324 -0.81824,1.10363 -1.30573,1.59118 -0.48755,0.48749 -1.01794,0.92273 -1.59119,1.30579 -0.5733,0.38299 -1.1784,0.70642 -1.8153,0.97027 -0.63697,0.26386 -1.29352,0.46302 -1.96967,0.59754 -0.67621,0.13446 -1.35901,0.20172 -2.0484,0.20178 h -139 c -0.68945,-6e-5 -1.37225,-0.0673 -2.04846,-0.20178 -0.67621,-0.13452 -1.33277,-0.33368 -1.96979,-0.59754 -0.6369,-0.26385 -1.242,-0.58734 -1.81531,-0.97033 -0.57324,-0.383 -1.10357,-0.81824 -1.59106,-1.30573 -0.48749,-0.48755 -0.92279,-1.01794 -1.30585,-1.59118 -0.38299,-0.57325 -0.70642,-1.17835 -0.97027,-1.81531 -0.26386,-0.63697 -0.46302,-1.29352 -0.59748,-1.96973 C 607.06726,810.87219 607,810.18939 607,809.5 v -49 c 0,-0.68951 0.0673,-1.37238 0.20178,-2.04858 0.13446,-0.67615 0.33362,-1.33271 0.59748,-1.96967 0.26385,-0.63696 0.58728,-1.24206 0.97027,-1.81525 0.38306,-0.5733 0.81836,-1.10369 1.30585,-1.59118 0.48749,-0.48749 1.01782,-0.92279 1.59106,-1.30585 0.57331,-0.38306 1.17841,-0.70648 1.81531,-0.97034 0.63702,-0.26373 1.29358,-0.46289 1.96979,-0.59741 C 616.12775,750.06726 616.81055,750 617.5,750 Z" />
          </g>
          <g
             transform="matrix(2.7507708,0,0,2.7507708,61.651245,-656.29993)"
             id="g376">
            <text
               id="text380"
               style="font-variant:normal;font-weight:bold;font-size:14px;font-family:Helvetica;-inkscape-font-specification:Helvetica-Bold;writing-mode:lr-tb;fill:#ffffff;fill-opacity:1;fill-rule:nonzero;stroke:none"
               transform="translate(620.875,783)"><tspan
                 id="tspan378"
                 y="0"
                 x="0 7.7861328 15.572266 23.358398 27.248047 32.696289 40.482422 48.268555 56.820312 62.268555 70.820312 78.606445 82.496094 93.385742 97.275391 101.9375 110.48926 119.04102 127.59277">271 records without</tspan></text>
            <text
               id="text384"
               style="font-variant:normal;font-weight:bold;font-size:14px;font-family:Helvetica;-inkscape-font-specification:Helvetica-Bold;writing-mode:lr-tb;fill:#ffffff;fill-opacity:1;fill-rule:nonzero;stroke:none"
               transform="translate(664.82813,799)"><tspan
                 id="tspan382"
                 y="0"
                 x="0 4.6621094 10.110352 14 22.551758 31.103516 38.889648">trigger</tspan></text>
            <path
               id="path386"
               style="fill:none;stroke:#23445d;stroke-width:1;stroke-linecap:butt;stroke-linejoin:miter;stroke-miterlimit:10;stroke-dasharray:none;stroke-opacity:1"
               d="M 402,515.5 V 540 c 0,6.66669 3.33334,10 10,10 h 175 c 6.66669,0 10,3.33331 10,10 v 55.53003" />
            <path
               id="path388"
               style="fill:#23445d;fill-opacity:1;fill-rule:nonzero;stroke:none"
               d="m 597,625.53003 -5,-10 h 10 z" />
            <path
               id="path390"
               style="fill:none;stroke:#23445d;stroke-width:1;stroke-linecap:butt;stroke-linejoin:miter;stroke-miterlimit:10;stroke-dasharray:none;stroke-opacity:1"
               d="m 597,625.53003 -5,-10 h 10 z" />
            <path
               id="path392"
               style="fill:none;stroke:#23445d;stroke-width:1;stroke-linecap:butt;stroke-linejoin:miter;stroke-miterlimit:10;stroke-dasharray:none;stroke-opacity:1"
               d="M 402,515.5 V 540 c 0,6.66669 -3.33334,10 -10,10 H 217 c -6.66667,0 -10,3.33331 -10,10 v 55.53003" />
            <path
               id="path394"
               style="fill:#23445d;fill-opacity:1;fill-rule:nonzero;stroke:none"
               d="m 207,625.53003 -5,-10 h 10 z" />
            <path
               id="path396"
               style="fill:none;stroke:#23445d;stroke-width:1;stroke-linecap:butt;stroke-linejoin:miter;stroke-miterlimit:10;stroke-dasharray:none;stroke-opacity:1"
               d="m 207,625.53003 -5,-10 h 10 z" />
            <path
               id="path398"
               style="fill:none;stroke:#23445d;stroke-width:1;stroke-linecap:butt;stroke-linejoin:miter;stroke-miterlimit:10;stroke-dasharray:none;stroke-opacity:1"
               d="m 207,690 v 20 c 0,6.66669 -3.33333,10 -10,10 h -71 c -6.66666,0 -10,2.58667 -10,7.76001 v 7.77002" />
            <path
               id="path400"
               style="fill:#23445d;fill-opacity:1;fill-rule:nonzero;stroke:none"
               d="m 116,745.53003 -5,-10 h 10 z" />
            <path
               id="path402"
               style="fill:none;stroke:#23445d;stroke-width:1;stroke-linecap:butt;stroke-linejoin:miter;stroke-miterlimit:10;stroke-dasharray:none;stroke-opacity:1"
               d="m 116,745.53003 -5,-10 h 10 z" />
            <path
               id="path404"
               style="fill:none;stroke:#23445d;stroke-width:1;stroke-linecap:butt;stroke-linejoin:miter;stroke-miterlimit:10;stroke-dasharray:none;stroke-opacity:1"
               d="m 207,690 v 20 c 0,6.66669 3.33333,10 10,10 h 71 c 6.66666,0 10,2.58667 10,7.76001 v 7.77002" />
            <path
               id="path406"
               style="fill:#23445d;fill-opacity:1;fill-rule:nonzero;stroke:none"
               d="m 298,745.53003 -5,-10 h 10 z" />
            <path
               id="path408"
               style="fill:none;stroke:#23445d;stroke-width:1;stroke-linecap:butt;stroke-linejoin:miter;stroke-miterlimit:10;stroke-dasharray:none;stroke-opacity:1"
               d="m 298,745.53003 -5,-10 h 10 z" />
            <path
               id="path410"
               style="fill:none;stroke:#23445d;stroke-width:1;stroke-linecap:butt;stroke-linejoin:miter;stroke-miterlimit:10;stroke-dasharray:none;stroke-opacity:1"
               d="m 597,690 v 20 c 0,6.66669 -3.33331,10 -10,10 h -71 c -6.66666,0 -10,2.58667 -10,7.76001 v 7.77002" />
            <path
               id="path412"
               style="fill:#23445d;fill-opacity:1;fill-rule:nonzero;stroke:none"
               d="m 506,745.53003 -5,-10 h 10 z" />
            <path
               id="path414"
               style="fill:none;stroke:#23445d;stroke-width:1;stroke-linecap:butt;stroke-linejoin:miter;stroke-miterlimit:10;stroke-dasharray:none;stroke-opacity:1"
               d="m 506,745.53003 -5,-10 h 10 z" />
            <path
               id="path416"
               style="fill:none;stroke:#23445d;stroke-width:1;stroke-linecap:butt;stroke-linejoin:miter;stroke-miterlimit:10;stroke-dasharray:none;stroke-opacity:1"
               d="m 597,690 v 20 c 0,6.66669 3.33331,10 10,10 h 71 c 6.66669,0 10,2.58667 10,7.76001 v 7.77002" />
            <path
               id="path418"
               style="fill:#23445d;fill-opacity:1;fill-rule:nonzero;stroke:none"
               d="m 688,745.53003 -5,-10 h 10 z" />
            <path
               id="path420"
               style="fill:none;stroke:#23445d;stroke-width:1;stroke-linecap:butt;stroke-linejoin:miter;stroke-miterlimit:10;stroke-dasharray:none;stroke-opacity:1"
               d="m 688,745.53003 -5,-10 h 10 z" />
          </g>
        </g>
      </g>
    </g>
  </g>
</svg>
